<svg width="431" height="150" viewBox="0 0 431 150" fill="none" xmlns="http://www.w3.org/2000/svg">
<path d="M0.21875 50.7638C0.21875 37.1955 4.96397 25.6351 14.4544 16.0826C24.0057 6.46925 35.5646 1.60172 49.1311 1.41919C42.3783 1.54088 36.6596 4.03549 31.9144 8.84217C27.23 13.6489 24.8574 19.4291 24.8574 26.0611C24.8574 32.8756 27.23 38.7166 31.9753 43.5842C36.8422 48.33 42.6824 50.7029 49.4961 50.7029C63.0626 50.7029 74.6214 55.5096 84.1727 65.0621C93.7849 74.6147 98.6518 86.1751 98.8343 99.7433C98.7126 92.9896 96.2183 87.2703 91.4123 82.5244C86.6062 77.7786 80.8267 75.4057 74.1956 75.4057C67.3819 75.4057 61.5417 77.8394 56.6748 82.6461C51.9295 87.5136 49.5569 93.3547 49.5569 100.048C49.5569 113.737 44.69 125.359 35.0171 134.911C25.4049 144.525 13.7852 149.331 0.279581 149.331V50.7638H0.21875Z" fill="white"/>
<path d="M175.002 134.911C165.39 125.298 160.584 113.677 160.584 100.047C160.584 86.4792 165.329 74.9188 174.82 65.3663C184.371 55.7529 195.93 50.8854 209.496 50.7029C202.743 50.8246 197.025 53.3192 192.28 58.1259C187.595 62.9326 185.223 68.7127 185.223 75.3447C185.223 82.1593 187.595 88.0003 192.341 92.8679C197.207 97.6137 203.048 99.9866 209.861 99.9866C216.614 99.9866 222.394 97.6137 227.26 92.8679C232.067 88.0003 234.5 82.1593 234.5 75.3447C234.5 68.6519 232.127 62.9326 227.382 58.1259C222.637 53.3192 216.857 50.8246 210.166 50.7029C223.732 50.8246 235.291 55.6921 244.842 65.3663C254.393 74.9188 259.2 86.4792 259.2 100.047C259.2 113.737 254.333 125.359 244.66 134.911C235.048 144.525 223.428 149.331 209.922 149.331C196.173 149.392 184.553 144.525 175.002 134.911Z" fill="white"/>
<path d="M147.443 1.47949C147.686 1.47949 147.93 1.47949 148.173 1.47949C147.686 1.47949 147.2 1.4795 146.713 1.54034C146.409 1.54034 146.105 1.54034 145.8 1.54034C145.131 1.60118 144.401 1.60118 143.732 1.66203C143.61 1.66203 143.489 1.66203 143.367 1.66203C131.869 2.69638 121.892 7.50306 113.435 15.9604C103.884 25.5129 99.0781 37.1342 99.0781 50.7024V99.9862V149.27C99.4431 149.27 99.7473 149.27 100.052 149.27C99.8082 149.27 99.5648 149.27 99.3215 149.27C99.8082 149.27 100.295 149.27 100.782 149.209C101.086 149.209 101.39 149.209 101.694 149.209C102.363 149.148 103.093 149.148 103.763 149.087C103.884 149.087 104.006 149.087 104.128 149.087C115.626 148.053 125.603 143.246 134.059 134.789C143.61 125.236 148.416 113.615 148.416 100.047V50.7632V1.47949C148.112 1.47949 147.747 1.47949 147.443 1.47949Z" fill="white"/>
<path d="M320.644 0.932129C320.887 0.932129 321.131 0.932129 321.374 0.932129C320.887 0.932129 320.401 0.932133 319.914 0.992977C319.61 0.992977 319.306 0.992977 319.002 0.992977C318.332 1.05382 317.602 1.05382 316.933 1.11466C316.811 1.11466 316.69 1.11466 316.568 1.11466C305.07 2.14901 295.093 6.9557 286.637 15.413C277.085 24.9656 272.279 36.5868 272.279 50.155V99.4388V148.723C272.644 148.723 272.948 148.723 273.253 148.723C273.009 148.723 272.766 148.723 272.523 148.723C273.009 148.723 273.496 148.723 273.983 148.662C274.287 148.662 274.591 148.662 274.895 148.662C275.564 148.601 276.294 148.601 276.964 148.54C277.085 148.54 277.207 148.54 277.329 148.54C288.827 147.506 298.804 142.699 307.26 134.242C316.811 124.689 321.617 113.068 321.617 99.4996V50.2159V0.932129C321.313 0.932129 320.948 0.932129 320.644 0.932129Z" fill="white"/>
<path d="M346.681 134.849C337.191 125.297 332.445 113.676 332.445 100.107C332.445 86.5392 337.251 74.9789 346.863 65.3655C356.415 55.6913 368.035 50.8237 381.723 50.8237C395.289 50.8237 406.848 55.6913 416.46 65.3655C426.133 74.918 431 86.5392 431 100.107H381.723C374.909 100.107 369.069 102.541 364.202 107.348C359.457 112.215 357.084 118.057 357.084 124.749C357.084 131.442 359.457 137.283 364.141 142.09C368.886 146.897 374.666 149.33 381.358 149.391C367.791 149.33 356.232 144.463 346.681 134.849Z" fill="white"/>
</svg>
