<svg width="166" height="86" viewBox="0 0 166 86" fill="none" xmlns="http://www.w3.org/2000/svg">
<path d="M123.795 71.4235C119.838 74.34 114.423 73.2984 111.507 69.3404L104.009 58.9245C101.094 54.9665 102.135 49.5503 106.092 46.6338C110.049 43.7174 115.465 44.759 118.38 48.717L125.878 59.1328C128.586 63.0908 127.753 68.5071 123.795 71.4235Z" stroke="#EBFF71" stroke-width="3" stroke-miterlimit="10"/>
<path d="M33.4047 77.2566C28.6144 77.2566 24.6572 73.2986 24.6572 68.5073V55.8C24.6572 51.0088 28.6144 47.0508 33.4047 47.0508C38.195 47.0508 42.1522 51.0088 42.1522 55.8V68.5073C42.1522 73.2986 38.195 77.2566 33.4047 77.2566Z" stroke="#EBFF71" stroke-width="3" stroke-miterlimit="10"/>
<path d="M162.743 1.63776C160.035 -0.445397 156.078 -0.0287648 153.995 2.67934L117.964 48.3006C118.172 48.5089 118.172 48.5089 118.38 48.7172L125.67 58.7164L163.784 10.387C165.867 7.67893 165.45 3.72093 162.743 1.63776Z" fill="#EBFF71"/>
<path d="M104.009 58.9248C103.176 57.6749 102.552 56.425 102.552 54.9668H46.3176C42.9852 54.9668 40.0693 57.6749 40.0693 61.2163C40.0693 64.5494 42.7769 67.4658 46.3176 67.4658H110.258L104.009 58.9248Z" fill="#EBFF71"/>
<path d="M21.1169 56.8418L9.03702 52.2588C6.32946 51.2173 4.87154 48.0925 5.91291 45.3844C6.95428 42.6763 10.0784 41.2181 12.7859 42.2597L24.8658 46.8426C27.5734 47.8842 29.0313 51.0089 27.9899 53.7171C26.9486 56.4252 23.8245 57.6751 21.1169 56.8418Z" fill="#EBFF71"/>
<path d="M19.2422 69.3408H6.32918C3.41335 69.3408 0.914062 66.8409 0.914062 63.9245C0.914062 61.0081 3.41335 58.5083 6.32918 58.5083H19.2422C22.158 58.5083 24.6573 61.0081 24.6573 63.9245C24.6573 67.0493 22.158 69.3408 19.2422 69.3408Z" fill="#EBFF71"/>
<path d="M22.3669 70.1738L10.287 74.7568C7.57946 75.7984 6.12154 78.9231 7.16291 81.6313C8.20428 84.3394 11.3284 85.7976 14.0359 84.756L26.1158 80.1731C28.8234 79.1315 30.2813 76.0067 29.2399 73.2986C28.1986 70.3821 25.0745 69.1322 22.3669 70.1738Z" fill="#EBFF71"/>
</svg>
