<svg width="292" height="511" viewBox="0 0 292 511" fill="none" xmlns="http://www.w3.org/2000/svg">
<g clip-path="url(#clip0)">
<path d="M268.465 318.516H23.5349C12.2881 318.516 3.12402 309.35 3.12402 298.101V149.571C3.12402 138.322 12.2881 129.156 23.5349 129.156H268.465C279.712 129.156 288.876 138.322 288.876 149.571V298.101C288.876 309.35 279.712 318.516 268.465 318.516Z" stroke="#EBFF71" stroke-width="3" stroke-miterlimit="10"/>
<path d="M268.465 129.156H192.028C203.275 129.156 212.439 138.322 212.439 149.571V298.101C212.439 309.35 203.275 318.516 192.028 318.516H268.465C279.712 318.516 288.876 309.35 288.876 298.101V149.571C288.876 138.322 279.712 129.156 268.465 129.156Z" fill="#EBFF71" stroke="#EBFF71" stroke-width="3" stroke-miterlimit="10"/>
<path d="M220.145 446.421H87.8913C76.6445 446.421 67.4805 437.255 67.4805 426.006V347.888C67.4805 336.639 76.6445 327.473 87.8913 327.473H220.145C231.392 327.473 240.556 336.639 240.556 347.888V426.215C240.348 437.464 231.392 446.421 220.145 446.421Z" stroke="#EBFF71" stroke-width="3" stroke-miterlimit="10"/>
<path d="M228.06 327.473H181.823C188.696 327.473 194.111 333.097 194.111 340.18V433.506C194.111 440.588 188.696 446.213 181.823 446.213H228.06C234.933 446.213 240.348 440.588 240.348 433.506V340.18C240.348 333.306 234.933 327.473 228.06 327.473Z" fill="#EBFF71" stroke="#EBFF71" stroke-width="3" stroke-miterlimit="10"/>
<path d="M207.561 65.7896L146.093 4.42114L84.6249 65.7896L146.093 127.158L207.561 65.7896Z" stroke="#EBFF71" stroke-width="3" stroke-miterlimit="10"/>
<path d="M168.702 218.94H33.5324C26.2428 218.94 20.4111 212.899 20.4111 205.816V193.526C20.4111 186.235 26.4511 180.402 33.5324 180.402H168.702C175.992 180.402 181.823 186.443 181.823 193.526V205.816C181.823 212.899 175.992 218.94 168.702 218.94Z" stroke="#EBFF71" stroke-width="3" stroke-miterlimit="10"/>
<path d="M168.702 291.434H33.5324C26.2428 291.434 20.4111 285.393 20.4111 278.31C20.4111 271.019 26.4511 265.187 33.5324 265.187H168.702C175.992 265.187 181.823 271.228 181.823 278.31C181.823 285.602 175.992 291.434 168.702 291.434Z" stroke="#EBFF71" stroke-width="3" stroke-miterlimit="10"/>
<path d="M166.827 180.194H140.585C147.875 180.194 153.706 186.235 153.706 193.318V205.608C153.706 212.899 147.666 218.732 140.585 218.732H166.827C174.117 218.732 179.949 212.691 179.949 205.608V193.318C179.949 186.235 173.909 180.194 166.827 180.194Z" fill="#EBFF71" stroke="#EBFF71" stroke-width="3" stroke-miterlimit="10"/>
<path d="M124.131 213.941C120.174 213.941 116.842 210.608 116.842 206.65V192.484C116.842 188.526 120.174 185.193 124.131 185.193C128.089 185.193 131.421 188.526 131.421 192.484V206.65C131.629 210.608 128.297 213.941 124.131 213.941Z" fill="#EBFF71" stroke="#EBFF71" stroke-width="3" stroke-miterlimit="10"/>
<path d="M47.4869 213.941C43.5296 213.941 40.1973 210.608 40.1973 206.65V192.484C40.1973 188.526 43.5296 185.193 47.4869 185.193C51.4441 185.193 54.7764 188.526 54.7764 192.484V206.65C54.7764 210.608 51.4441 213.941 47.4869 213.941Z" fill="#EBFF71" stroke="#EBFF71" stroke-width="3" stroke-miterlimit="10"/>
<path d="M183.698 451.421C180.782 451.421 178.283 453.921 178.283 456.837V500.375H165.786C162.87 500.375 160.371 502.875 160.371 505.792C160.371 508.708 162.87 511.208 165.786 511.208H183.698C186.614 511.208 189.113 508.708 189.113 505.792V456.837C189.113 453.712 186.614 451.421 183.698 451.421Z" fill="#EBFF71"/>
<path d="M115.8 451.421C112.884 451.421 110.385 453.921 110.385 456.837V500.375H97.8888C94.9729 500.375 92.4736 502.875 92.4736 505.792C92.4736 508.708 94.9729 511.208 97.8888 511.208H115.8C118.716 511.208 121.215 508.708 121.215 505.792V456.837C121.215 453.712 118.716 451.421 115.8 451.421Z" fill="#EBFF71"/>
</g>
<defs>
<clipPath id="clip0">
<rect width="292" height="511" fill="white"/>
</clipPath>
</defs>
</svg>
